<?xml version="1.0" standalone="no"?>
<!DOCTYPE svg PUBLIC "-//W3C//DTD SVG 20010904//EN"
 "http://www.w3.org/TR/2001/REC-SVG-20010904/DTD/svg10.dtd">
<svg version="1.0" xmlns="http://www.w3.org/2000/svg"
 width="2048.000000pt" height="2048.000000pt" viewBox="0 0 2048.000000 2048.000000"
 preserveAspectRatio="xMidYMid meet">
<metadata>
Created by potrace 1.15, written by Peter Selinger 2001-2017
</metadata>
<g transform="translate(0.000000,2048.000000) scale(0.100000,-0.100000)"
fill="#000000" stroke="none">
<path d="M9675 20139 c-1758 -103 -3412 -650 -4882 -1615 -1674 -1099 -2996
-2710 -3743 -4559 -394 -976 -613 -1922 -702 -3030 -18 -218 -18 -1161 0
-1390 91 -1191 362 -2277 827 -3325 389 -876 917 -1711 1543 -2440 69 -80 150
-172 181 -205 432 -463 777 -784 1221 -1136 411 -326 980 -698 1430 -936 250
-132 332 -174 337 -169 5 4 -44 171 -332 1124 -81 269 -95 332 -77 332 4 0 26
-18 47 -41 117 -121 326 -269 499 -353 270 -133 513 -193 816 -203 179 -6 315
4 458 33 744 152 1336 711 1525 1440 35 135 38 138 93 105 30 -18 128 -138
809 -986 159 -198 399 -497 534 -665 587 -731 792 -986 1059 -1320 157 -195
290 -361 296 -367 9 -10 46 -7 176 13 497 77 1082 219 1575 382 511 170 1026
389 1500 640 1770 937 3218 2387 4152 4157 635 1204 1010 2520 1113 3904 28
370 28 1053 0 1425 -93 1254 -407 2439 -943 3561 -948 1984 -2542 3607 -4507
4590 -1231 616 -2513 956 -3904 1035 -205 12 -895 11 -1101 -1z m893 -2505
c114 -198 307 -523 346 -584 13 -19 90 -147 171 -285 82 -137 182 -306 223
-374 41 -68 80 -133 86 -145 6 -11 92 -155 190 -319 99 -165 182 -316 187
-338 6 -25 6 -55 0 -77 -5 -20 -12 -86 -16 -147 -9 -153 -42 -516 -60 -660 -8
-66 -24 -223 -35 -350 -34 -371 -75 -738 -88 -795 l-8 -34 -29 38 c-36 47 -64
92 -106 171 -65 123 -76 133 -275 259 -104 66 -229 146 -278 178 -48 32 -92
58 -96 58 -17 0 -32 -32 -60 -133 -16 -59 -34 -123 -39 -144 -11 -48 -59 -229
-106 -403 -20 -74 -54 -202 -75 -285 -44 -171 -98 -374 -165 -620 -58 -213
-60 -222 -45 -287 17 -76 89 -420 105 -503 14 -70 29 -143 105 -505 22 -107
58 -285 80 -395 22 -110 46 -227 54 -260 8 -33 20 -87 26 -120 6 -33 22 -109
35 -170 24 -108 55 -256 96 -465 31 -156 39 -185 62 -222 11 -18 59 -109 107
-203 47 -93 120 -235 162 -315 194 -374 269 -522 266 -524 -1 -1 -34 -11 -73
-20 -180 -46 -319 -104 -450 -189 -89 -58 -97 -64 -167 -125 -27 -23 -54 -39
-60 -36 -7 4 -8 3 -4 -4 3 -6 -8 -27 -26 -46 -31 -34 -57 -49 -42 -24 4 7 3 8
-5 4 -6 -4 -9 -11 -6 -16 7 -12 -123 -83 -141 -76 -8 3 -13 2 -9 -3 7 -13
-383 -214 -397 -205 -7 4 -8 3 -4 -4 4 -7 -23 -26 -71 -50 -43 -22 -131 -67
-196 -101 -64 -34 -122 -59 -129 -55 -6 4 -9 3 -5 -2 3 -5 -65 -47 -151 -93
l-157 -84 -49 28 c-88 48 -127 76 -121 85 3 5 0 12 -6 16 -8 4 -9 3 -5 -4 15
-25 -13 -10 -85 44 -94 71 -120 95 -113 105 3 5 -1 6 -8 4 -35 -14 -448 456
-433 493 2 7 0 10 -5 7 -5 -3 -71 72 -146 167 -75 95 -159 200 -185 232 -26
33 -45 64 -42 69 3 6 2 7 -4 4 -6 -4 -25 15 -44 41 -18 26 -42 56 -52 67 -11
11 -36 43 -57 70 -21 28 -46 59 -57 70 -10 11 -34 43 -53 70 -18 28 -59 82
-90 120 -31 39 -67 86 -80 105 -13 19 -27 37 -30 40 -3 3 -21 27 -40 53 -35
48 -87 114 -120 153 -9 12 -21 28 -26 36 -5 9 -21 31 -36 49 -27 34 -48 63
-150 199 -31 41 -67 89 -81 105 -40 50 -45 66 -57 190 -6 66 -19 190 -30 275
-10 85 -26 227 -35 315 -9 88 -21 198 -27 245 -5 47 -12 108 -14 135 -2 28 -8
84 -14 125 -10 72 -50 447 -71 670 -5 58 -12 116 -14 130 -15 104 -55 520 -55
580 0 79 21 392 46 695 8 99 16 203 18 230 2 28 8 109 14 180 7 72 19 225 27
340 18 237 22 265 39 265 15 0 100 -53 142 -89 17 -14 42 -34 55 -43 13 -9 52
-37 87 -62 34 -25 64 -46 67 -46 18 0 -6 61 -86 222 -185 371 -269 546 -269
559 0 8 49 75 108 150 122 156 313 392 322 399 7 5 64 70 145 165 28 33 72 84
99 115 27 30 63 71 79 90 225 259 836 874 1032 1038 22 19 69 51 105 73 72 42
116 53 520 124 211 37 261 46 632 115 119 22 227 40 239 40 l22 0 -7 398 c-4
218 -9 429 -12 467 l-5 70 89 -155 c49 -85 139 -241 200 -346z m-4455 -1341
c118 -269 225 -513 237 -543 11 -30 31 -77 44 -105 27 -57 63 -141 116 -270
20 -49 49 -116 63 -148 36 -77 35 -87 -8 -87 -27 0 -43 8 -66 33 -127 133
-364 365 -369 362 -4 -3 -2 -37 5 -77 7 -40 18 -107 24 -148 6 -41 16 -100 21
-130 6 -30 35 -208 65 -395 31 -187 64 -394 75 -460 11 -66 33 -203 49 -305
35 -215 82 -501 146 -893 l46 -278 -35 -72 c-76 -160 -131 -277 -171 -362 -23
-49 -62 -130 -85 -180 -23 -49 -57 -121 -75 -160 -18 -38 -61 -128 -95 -200
-112 -234 -150 -316 -150 -324 0 -5 -7 -14 -15 -21 -8 -7 -15 -18 -15 -25 0
-7 -33 -81 -74 -166 -40 -85 -90 -190 -111 -234 -20 -43 -61 -129 -90 -190
-152 -317 -205 -428 -205 -431 0 -2 6 -4 14 -4 8 0 20 -23 29 -57 8 -32 34
-116 57 -188 23 -71 53 -168 67 -215 14 -47 29 -94 33 -105 5 -11 33 -99 64
-195 30 -96 85 -269 121 -385 82 -258 155 -490 235 -745 34 -107 86 -269 115
-360 91 -284 142 -451 175 -570 54 -197 73 -254 96 -285 21 -29 195 -225 293
-330 26 -27 123 -135 216 -240 203 -227 296 -327 313 -338 6 -4 12 -12 12 -17
0 -5 -92 -56 -204 -115 l-204 -105 -254 106 c-139 58 -401 168 -583 244 -181
76 -357 150 -389 164 -32 15 -76 29 -96 32 l-37 6 -32 237 c-18 130 -36 253
-39 274 -7 38 -169 270 -183 262 -15 -10 -17 -65 -4 -145 8 -47 30 -204 50
-350 20 -146 68 -485 106 -754 38 -269 68 -494 66 -499 -1 -5 -31 35 -65 90
-139 218 -333 508 -642 956 -178 260 -398 580 -488 712 -90 132 -176 258 -192
280 -16 22 -86 124 -156 228 -70 103 -131 184 -134 180 -4 -5 -15 -125 -24
-268 -9 -143 -21 -318 -26 -390 -47 -650 -60 -832 -60 -850 -1 -19 -2 -18 -21
5 -12 14 -46 54 -77 90 -32 35 -90 103 -131 150 -41 47 -85 97 -98 111 -22 24
-24 36 -33 235 -5 115 -12 259 -15 319 -5 97 -23 508 -55 1265 -5 129 -17 379
-25 555 -8 176 -19 430 -25 565 -22 529 -32 706 -42 739 -10 33 -127 161 -147
161 -11 0 -15 -21 -41 -220 -27 -209 -49 -363 -60 -435 -5 -33 -12 -82 -14
-110 -3 -27 -10 -74 -16 -104 -5 -29 -10 -69 -10 -87 0 -19 -4 -34 -10 -34 -5
0 -10 12 -10 28 0 15 -4 110 -10 212 -5 102 -16 320 -25 485 -8 165 -24 487
-36 715 -12 228 -22 510 -23 625 l-1 210 103 295 c57 162 121 347 142 410 21
63 79 234 130 380 50 146 100 290 110 320 106 317 183 527 202 549 13 14 59
64 103 111 44 47 141 150 215 229 74 80 146 156 160 171 42 45 261 280 330
354 36 39 104 111 151 161 47 49 218 232 380 405 162 173 366 391 454 485 88
94 221 236 295 315 74 80 171 182 214 227 44 46 91 97 104 113 14 17 28 30 32
30 4 0 104 -219 223 -487z m7979 -5352 c2 -5 57 -67 124 -137 372 -397 356
-378 331 -386 -12 -4 -177 -34 -367 -67 -592 -104 -952 -169 -954 -173 -2 -1
-45 -151 -95 -333 -51 -181 -98 -335 -104 -342 -14 -14 -720 -383 -725 -379
-2 3 70 259 183 646 35 120 207 716 254 880 l28 95 124 21 c68 12 219 36 334
54 116 17 345 53 510 80 324 51 352 55 357 41z m-493 -2479 c266 -383 486
-704 488 -713 4 -12 -108 -93 -444 -320 -246 -167 -481 -325 -520 -353 -40
-27 -75 -47 -77 -45 -3 3 0 38 6 79 14 101 3 312 -22 432 -76 363 -285 677
-587 885 -81 56 -232 134 -300 155 -24 7 -43 15 -43 19 0 3 150 88 333 189
182 101 406 225 497 276 91 51 170 93 175 93 6 0 228 -313 494 -697z m2346
-122 c31 -91 84 -240 116 -332 l58 -167 -357 -483 c-197 -266 -373 -504 -392
-530 -19 -26 -42 -47 -50 -48 -8 0 -159 29 -335 66 -176 36 -464 94 -640 130
-660 134 -675 138 -664 148 9 9 642 447 658 455 12 7 115 -11 347 -60 181 -38
334 -71 341 -73 6 -3 39 30 72 72 52 67 254 328 666 860 60 78 112 138 116
134 3 -4 32 -81 64 -172z m-4024 -134 c348 -88 616 -353 712 -701 43 -157 40
-363 -8 -529 -145 -500 -651 -801 -1160 -689 -501 111 -835 591 -764 1099 60
431 402 777 834 844 99 15 278 4 386 -24z m-1651 -623 c0 -5 -7 -44 -15 -88
-20 -109 -19 -356 1 -476 52 -312 225 -620 463 -823 180 -154 324 -228 608
-314 19 -6 -6 -26 -162 -132 -102 -69 -265 -179 -363 -245 -97 -66 -317 -215
-487 -330 -971 -656 -1236 -837 -1323 -897 l-97 -68 -17 156 c-10 85 -28 201
-42 257 -128 533 -456 978 -925 1254 -105 63 -257 133 -343 160 -32 10 -58 21
-58 25 0 4 19 17 43 29 23 12 182 99 352 194 171 94 461 255 645 357 586 324
1189 657 1395 771 110 61 225 125 255 143 58 34 70 39 70 27z m-6134 -425 c91
-199 171 -376 179 -393 7 -16 46 -100 85 -185 40 -85 80 -175 90 -200 10 -25
38 -88 63 -140 58 -124 92 -198 132 -290 18 -41 122 -268 230 -505 108 -236
199 -436 202 -444 6 -13 -601 291 -624 313 -6 6 -56 198 -111 426 -93 384
-133 552 -338 1434 -40 176 -77 329 -80 340 -18 58 22 -24 172 -356z m9177
-630 c-3 -7 -1 -8 6 -4 12 8 101 -42 101 -56 0 -5 5 -8 11 -8 19 0 99 -63 92
-73 -3 -6 -1 -7 5 -3 6 4 35 -9 64 -28 213 -141 248 -167 242 -178 -4 -7 -3
-8 5 -4 13 8 167 -91 164 -105 -2 -5 1 -8 6 -6 16 4 411 -275 404 -286 -3 -6
-1 -7 5 -3 6 3 31 -8 57 -25 37 -25 44 -34 34 -45 -7 -9 -8 -14 -1 -14 6 0 12
5 14 12 3 7 22 0 52 -21 47 -33 60 -57 14 -27 -21 14 -25 14 -25 1 0 -8 4 -12
9 -9 5 3 15 0 23 -6 8 -6 19 -9 24 -5 17 10 60 -24 54 -43 -4 -14 -3 -14 5 -3
8 11 13 11 23 2 8 -7 29 -21 47 -32 18 -11 31 -23 28 -28 -3 -5 2 -8 12 -7 9
0 16 -5 14 -12 -1 -8 2 -11 7 -7 14 8 92 -45 85 -57 -3 -5 0 -8 7 -7 8 2 31
-8 52 -21 39 -23 37 -39 -5 -40 -18 0 -33 -33 -23 -50 11 -18 27 -11 20 9 -5
15 1 24 24 36 l31 15 147 -96 c82 -53 162 -103 178 -110 27 -11 197 -24 530
-39 66 -3 251 -12 410 -20 581 -30 1204 -61 1440 -71 77 -3 142 -7 143 -9 2
-2 -19 -15 -48 -30 -28 -14 -80 -44 -116 -66 -36 -22 -69 -37 -75 -34 -5 4 -9
2 -9 -2 0 -19 -57 -40 -102 -38 -43 2 -51 -1 -93 -41 -25 -25 -51 -42 -57 -38
-7 4 -8 3 -4 -4 11 -18 21 -15 47 13 31 34 89 59 103 45 10 -10 -3 -14 -32
-11 -7 1 -11 -4 -10 -11 2 -8 -4 -12 -14 -10 -10 2 -18 -1 -18 -6 0 -6 -55
-40 -122 -77 -68 -38 -148 -82 -178 -100 -124 -72 -173 -98 -166 -87 4 7 2 10
-7 6 -8 -3 -21 6 -31 20 -11 17 -26 26 -42 26 -22 0 -25 -2 -14 -15 7 -8 19
-15 26 -15 8 0 14 -5 14 -11 0 -5 -4 -8 -8 -5 -5 3 -9 -1 -9 -9 0 -10 5 -11
17 -5 9 5 22 5 30 0 11 -7 8 -12 -15 -22 -17 -7 -42 -21 -57 -31 -15 -11 -33
-15 -40 -11 -7 4 -10 3 -6 -1 11 -12 -120 -88 -138 -81 -8 3 -13 2 -9 -3 7
-12 -84 -63 -98 -54 -6 3 -7 1 -3 -5 7 -12 -128 -88 -151 -86 -7 1 -10 -2 -7
-7 8 -14 -137 -80 -186 -84 -25 -2 -142 -9 -260 -15 -118 -6 -280 -15 -360
-20 -80 -5 -152 -9 -160 -9 -8 0 -67 -3 -130 -6 -71 -4 -130 -3 -155 4 -39 10
-38 11 20 7 48 -3 54 -2 33 6 -18 6 -56 6 -105 0 -66 -8 -71 -10 -33 -12 82
-4 103 -19 25 -18 -38 1 -90 -2 -115 -5 -25 -4 -137 -11 -250 -17 -379 -19
-407 -23 -381 -54 8 -9 21 -16 30 -16 14 1 14 2 -1 11 -10 5 -18 15 -18 21 0
6 17 -2 38 -18 46 -35 215 -175 222 -183 3 -4 20 -17 38 -30 18 -13 31 -26 28
-29 -3 -2 -12 1 -20 7 -8 7 -20 10 -26 6 -6 -4 -9 -3 -8 2 1 4 -11 23 -28 41
-22 23 -36 31 -50 26 -14 -4 -15 -3 -5 4 10 7 10 11 1 17 -6 4 -19 0 -29 -9
-20 -18 -31 -20 -31 -7 0 5 9 13 21 16 20 7 20 8 -7 36 -15 16 -30 27 -32 24
-3 -2 6 -13 19 -24 14 -11 20 -23 15 -28 -5 -4 -11 -2 -13 5 -3 9 -13 4 -30
-14 -13 -14 -21 -29 -18 -32 3 -4 10 0 14 7 6 9 14 10 22 5 8 -5 32 -9 53 -9
51 -1 71 -27 38 -50 -27 -20 -28 -41 -2 -55 11 -6 20 -8 20 -4 0 3 9 -4 19
-17 17 -20 22 -22 33 -10 11 11 11 14 0 18 -50 18 -76 73 -35 73 12 0 13 -3 4
-14 -9 -11 -7 -15 11 -19 12 -4 25 -1 29 4 4 8 9 8 14 -1 4 -6 13 -9 21 -6 19
7 154 -112 147 -130 -3 -8 -10 -14 -15 -14 -6 0 -8 6 -5 13 3 8 2 20 -3 27 -5
7 -7 -2 -7 -23 1 -26 5 -33 16 -29 9 3 12 1 7 -6 -4 -7 -5 -12 -2 -12 2 0 12
-3 20 -6 12 -5 15 -2 10 11 -6 15 -4 16 15 5 15 -8 20 -17 16 -28 -3 -9 -3
-13 1 -9 4 4 13 2 21 -4 11 -10 10 -14 -4 -25 -16 -12 -15 -13 10 -4 17 6 26
6 22 1 -3 -6 4 -9 16 -8 20 1 20 2 -3 19 -12 10 -37 32 -54 49 -20 19 -36 27
-47 23 -13 -5 -16 -2 -11 10 3 9 8 16 11 16 2 0 40 -29 84 -65 l81 -65 -54 0
c-29 0 -87 -3 -128 -5 -117 -8 -669 -25 -794 -25 -106 0 -167 11 -256 47 -8 3
-24 8 -35 10 -11 1 -45 12 -75 22 -30 11 -109 36 -175 56 -66 20 -138 43 -160
50 -52 18 -327 104 -480 150 -66 20 -137 44 -158 52 -36 16 -44 32 -19 41 7 2
10 -2 6 -12 -3 -9 -2 -16 2 -17 33 -3 70 -12 85 -20 10 -5 21 -9 26 -9 4 1 -7
9 -26 19 l-34 18 28 7 c26 7 26 8 9 20 -10 8 -25 11 -33 8 -12 -4 -11 -7 5
-13 18 -7 18 -8 -1 -8 -21 -1 -81 18 -103 32 -7 5 -10 18 -7 30 2 12 2 16 -1
10 -8 -17 -24 -16 -24 1 0 12 -28 31 -36 23 -2 -1 15 -20 36 -42 66 -68 44
-60 -35 12 -43 38 -73 73 -70 81 2 7 -1 11 -8 10 -21 -5 -78 48 -71 66 3 9 11
16 16 16 6 0 8 -6 5 -14 -3 -8 6 -27 20 -43 27 -29 22 -12 -6 21 -14 17 -14
19 -1 14 11 -4 16 1 17 13 1 11 -3 16 -12 13 -7 -3 -16 -1 -20 5 -3 6 -11 11
-16 11 -6 0 -7 -4 -4 -10 10 -16 -6 -12 -29 7 -15 13 -14 10 3 -10 37 -41 14
-32 -38 15 -54 50 -57 54 -34 54 10 0 29 4 43 8 l25 7 -23 -20 c-12 -11 -18
-22 -13 -25 5 -4 13 -1 17 5 4 8 9 7 15 -2 5 -9 7 -3 6 16 -2 26 -6 30 -34 30
-17 0 -29 -3 -27 -7 3 -4 -7 -6 -20 -5 -32 3 -267 223 -259 243 3 8 1 14 -5
14 -16 0 -24 -33 -10 -42 7 -4 16 -8 20 -8 4 0 5 -19 3 -42 -3 -24 -9 -99 -15
-168 -6 -69 -15 -186 -21 -260 -11 -132 -11 -137 11 -180 30 -59 208 -369 230
-400 10 -14 28 -47 40 -75 12 -27 26 -52 30 -55 4 -3 38 -54 75 -115 37 -60
87 -139 111 -176 l43 -65 -32 -87 c-17 -48 -36 -86 -42 -84 -5 3 -19 1 -30 -3
-19 -7 -18 -7 4 -20 22 -11 23 -11 17 6 -5 13 -4 16 3 9 13 -13 -27 -127 -41
-119 -6 4 -8 -1 -4 -12 14 -46 -9 -44 -94 8 -47 29 -87 55 -90 58 -3 3 -27 17
-55 32 -51 27 -58 39 -42 72 6 13 5 23 -6 33 -13 13 -18 13 -42 1 -23 -12 -24
-16 -11 -27 12 -10 19 -10 38 0 21 11 22 11 10 -4 -8 -9 -11 -21 -7 -27 10
-16 0 -12 -54 21 -45 28 -58 49 -30 49 6 0 7 -4 4 -10 -13 -21 27 -9 49 15 13
14 31 25 40 25 20 0 21 19 2 26 -8 3 -24 -4 -35 -15 -12 -12 -31 -21 -42 -21
-12 0 -27 -8 -34 -17 -11 -15 -19 -12 -86 30 -100 64 -96 61 -169 105 -36 21
-92 56 -125 78 -33 21 -66 39 -73 40 -20 3 -72 51 -64 59 4 5 1 5 -6 1 -8 -5
-29 2 -51 17 l-38 25 -13 127 c-6 69 -9 137 -6 151 5 17 3 23 -4 19 -6 -4 -10
5 -9 22 1 17 3 21 6 11 5 -20 23 -25 23 -6 0 6 -7 19 -16 29 -11 12 -13 27 -8
54 5 27 9 33 16 23 7 -10 8 -8 4 5 -3 10 -6 26 -7 35 0 9 -6 -1 -13 -23 l-12
-40 -8 75 c-4 41 -13 147 -21 235 -8 88 -17 183 -20 210 -18 160 -31 302 -50
545 -3 36 -7 76 -10 90 -2 14 -7 54 -10 90 -12 146 -35 399 -41 451 l-7 57 93
62 c87 59 94 62 107 44 7 -10 13 -13 13 -8 0 6 -5 15 -11 21 -8 8 0 18 31 38
34 22 44 24 52 13 8 -10 9 -9 5 3 -4 12 30 40 133 109 84 56 144 89 151 84 7
-4 10 -3 6 3 -5 9 93 82 170 127 7 4 56 18 109 32 52 14 103 29 112 34 46 25
115 49 125 43 5 -3 7 -1 4 4 -4 6 7 16 23 23 56 23 194 120 272 190 42 39 79
70 81 70 3 0 4 -10 3 -23 -2 -14 2 -24 11 -24 14 0 17 10 6 21 -18 18 -8 44
35 90 26 28 50 50 55 48 4 -1 6 2 5 7 -7 25 46 74 169 156 75 50 153 100 175
112 l40 22 59 -41 c33 -22 56 -44 52 -50z m-6232 -974 c290 -49 551 -185 759
-394 275 -275 413 -610 413 -1000 0 -387 -138 -725 -408 -995 -194 -195 -392
-307 -665 -377 -98 -26 -140 -31 -286 -35 -206 -7 -320 9 -495 67 -225 74
-379 169 -550 340 -293 291 -433 651 -416 1065 15 350 146 657 386 907 220
230 485 371 791 423 110 19 358 18 471 -1z m5542 -1922 c9 -8 17 -12 17 -8 0
9 124 -54 128 -65 2 -5 10 -9 17 -9 29 0 586 -265 593 -282 2 -4 10 -8 18 -8
20 0 101 -42 89 -46 -5 -2 -32 7 -60 20 -27 14 -52 23 -54 21 -2 -3 -5 -15 -6
-29 -2 -19 1 -24 20 -22 24 1 24 16 -1 16 -8 0 -14 5 -14 10 0 13 1 13 46 -7
22 -9 55 -17 74 -18 74 -5 250 -105 250 -142 0 -19 -19 -16 -28 5 -4 9 -13 18
-20 20 -10 2 -10 -2 -2 -17 10 -19 9 -20 -25 -5 -33 13 -35 13 -35 -5 0 -21
38 -40 49 -24 3 5 23 9 43 8 24 -1 35 2 32 9 -4 6 30 -27 74 -74 44 -47 77
-89 74 -94 -3 -5 0 -6 6 -2 6 3 16 -2 22 -13 6 -12 6 -22 1 -26 -6 -3 -9 -14
-8 -25 1 -10 5 -17 9 -14 4 3 5 11 2 18 -15 38 21 17 88 -53 71 -73 77 -83 83
-132 4 -30 5 -105 3 -167 -2 -61 0 -112 5 -112 4 0 7 -11 7 -24 l0 -25 -82 29
c-46 16 -148 51 -227 79 -151 53 -159 57 -146 69 4 4 10 1 12 -6 3 -6 9 -9 15
-6 6 4 14 0 19 -7 11 -18 21 -6 13 15 -4 10 -18 16 -38 16 -18 0 -36 4 -42 10
-5 5 -30 12 -54 14 -46 5 -29 -5 33 -18 15 -4 27 -11 27 -17 0 -7 -7 -8 -17
-4 -10 4 -22 8 -28 9 -5 1 -42 13 -81 26 -56 18 -69 26 -60 36 6 6 14 10 19 7
4 -2 7 14 7 36 0 34 -3 41 -20 41 -13 0 -20 -7 -20 -20 0 -16 -7 -20 -36 -20
-21 0 -33 -4 -29 -10 3 -5 20 -10 36 -10 20 0 29 -4 26 -12 -2 -7 -10 -12 -18
-11 -30 4 -170 55 -165 60 2 3 20 0 38 -6 21 -7 51 -7 83 -2 41 7 44 9 17 10
-22 1 -31 5 -26 13 5 8 0 9 -17 3 -31 -10 -67 -10 -104 -1 -22 6 -26 5 -15 -3
26 -18 -9 -13 -56 8 -23 10 -55 22 -72 26 -39 8 -59 30 -43 48 6 8 8 17 4 20
-3 4 -11 0 -17 -8 -9 -11 -20 0 -58 56 -26 38 -42 69 -37 69 5 0 9 7 9 16 0
13 -3 14 -14 5 -10 -9 -19 -3 -40 29 -28 42 -31 50 -18 50 4 0 16 -16 27 -36
l19 -35 14 36 c10 25 11 40 4 47 -17 17 -34 0 -21 -23 16 -31 3 -34 -17 -4 -9
14 -23 24 -30 21 -10 -4 -37 29 -114 140 -8 12 -39 56 -68 98 -29 41 -52 78
-52 81 0 3 -6 12 -14 20 -8 9 -40 51 -71 95 -44 62 -54 83 -47 97 6 10 18 50
27 88 10 39 19 73 22 78 5 8 19 2 46 -21z"/>
</g>
</svg>
